<svg xmlns="http://www.w3.org/2000/svg" aria-hidden="true" overflow="hidden" style="position:absolute;width:0;height:0">
  <defs>

  <symbol id="logo" viewBox="0 0 74 32">
  <path d="M4.032 7.661l-1.224-0.742c-0.769-0.468-1.317-0.927-1.645-1.379-0.303-0.426-0.484-0.957-0.484-1.53 0-0.015 0-0.029 0-0.044l-0 0.002c0-0.888 0.307-1.608 0.919-2.162 0.619-0.553 1.42-0.831 2.404-0.831 0.94 0 1.803 0.264 2.589 0.791v1.83c-0.812-0.779-1.686-1.169-2.622-1.169-0.526 0-0.959 0.124-1.298 0.371-0.339 0.242-0.508 0.553-0.508 0.935 0 0.339 0.124 0.657 0.372 0.952 0.247 0.296 0.647 0.605 1.201 0.928l1.235 0.726c1.376 0.817 2.065 1.86 2.065 3.128 0 0.904-0.305 1.638-0.911 2.203-0.603 0.565-1.387 0.846-2.356 0.846-1.113 0-2.126-0.341-3.040-1.024v-2.049c0.871 1.102 1.879 1.654 3.025 1.654 0.506 0 0.925-0.139 1.258-0.419 0.339-0.285 0.508-0.64 0.508-1.064 0-0.689-0.495-1.339-1.484-1.952zM16.749 1.121h1.613v11.266h-1.612v-4.903h-6.331v4.903h-1.614v-11.266h1.613v4.871h6.331v-4.872zM26.389 0.96c1.741 0 3.19 0.551 4.346 1.653 1.161 1.102 1.742 2.484 1.742 4.146s-0.586 3.038-1.758 4.129c-1.166 1.086-2.639 1.629-4.419 1.629-1.699 0-3.116-0.543-4.251-1.629-1.128-1.091-1.693-2.457-1.693-4.097 0-1.683 0.57-3.075 1.709-4.178 1.139-1.101 2.58-1.653 4.322-1.653zM26.453 2.492c-1.29 0-2.353 0.403-3.186 1.21-0.828 0.806-1.242 1.836-1.242 3.089 0 1.215 0.417 2.226 1.249 3.033 0.834 0.805 1.878 1.209 3.13 1.209 1.258 0 2.307-0.411 3.145-1.234 0.844-0.823 1.267-1.847 1.267-3.072 0-1.194-0.423-2.197-1.267-3.008-0.839-0.818-1.871-1.226-3.097-1.226zM34.363 12.387v-11.283h3.573c1.076 0 1.932 0.291 2.572 0.871 0.64 0.581 0.96 1.361 0.96 2.339 0 0.655-0.164 1.237-0.492 1.741-0.327 0.506-0.776 0.874-1.346 1.105-0.57 0.227-1.387 0.34-2.452 0.34h-1.194v4.887h-1.621zM37.654 2.539h-1.67v3.525h1.766c0.657 0 1.161-0.153 1.517-0.459 0.354-0.312 0.532-0.756 0.532-1.332 0-1.156-0.715-1.734-2.145-1.734zM11.613 28.831c0 0.962-0.33 1.731-0.991 2.306-0.657 0.575-1.576 0.863-2.759 0.863h-6.459v-11.177h5.404c0.699 0 1.306 0.067 1.822 0.201 0.522 0.134 0.941 0.32 1.259 0.557 0.316 0.23 0.553 0.505 0.709 0.822 0.155 0.317 0.233 0.664 0.233 1.041 0 0.003 0 0.006 0 0.009 0 0.779-0.324 1.482-0.845 1.982l-0.001 0.001c-0.237 0.22-0.476 0.376-0.717 0.468 0.764 0.3 1.344 0.682 1.741 1.146 0.403 0.456 0.605 1.050 0.605 1.782zM7.677 24.041c0-0.539-0.177-0.896-0.532-1.074s-0.908-0.266-1.662-0.266h-0.709v2.678h0.726c0.769 0 1.322-0.089 1.662-0.266 0.344-0.178 0.516-0.535 0.516-1.073zM8.226 28.694c0-0.957-0.694-1.435-2.081-1.435h-1.371v2.862h1.371c1.387 0 2.081-0.476 2.081-1.428zM25.565 32h-3.452l-0.911-2.266h-4.855l-0.928 2.266h-3.451l4.943-11.177h3.726l4.926 11.177zM20.427 27.79l-1.637-4.081-1.653 4.081h3.29zM38.807 32h-4.114l-4.274-5.234v5.234h-3.371v-11.177h3.371v5l4.049-5h3.661l-4.162 5.234 4.839 5.944zM48.702 32h-8.427v-11.177h8.289v2.242h-4.919v2.048h4.694v2.25h-4.694v2.387h5.057v2.25zM61.791 32h-3.621l-0.879-1.984c-0.323-0.726-0.613-1.255-0.871-1.589-0.258-0.339-0.511-0.553-0.758-0.645-0.242-0.097-0.557-0.145-0.943-0.145h-0.379v4.362h-3.371v-11.177h5.734c0.924 0 1.683 0.188 2.274 0.565 0.591 0.376 1.016 0.833 1.274 1.371 0.263 0.537 0.395 1.048 0.395 1.532 0 0.565-0.11 1.043-0.33 1.435-0.216 0.388-0.444 0.671-0.685 0.847-0.234 0.172-0.501 0.34-0.779 0.49l-0.036 0.018c0.361 0.21 0.657 0.46 0.888 0.75 0.237 0.285 0.556 0.865 0.96 1.741l1.128 2.428zM57.21 24.355c0-0.516-0.169-0.877-0.508-1.081s-0.89-0.307-1.654-0.307h-0.709v2.694h0.726c0.823 0 1.383-0.090 1.686-0.266 0.306-0.184 0.459-0.531 0.459-1.041zM73.742 20.823l-4.38 6.056v5.121h-3.37v-5.056l-4.459-6.121h3.499l2.564 3.516 2.573-3.516h3.572z"></path>
</symbol>
    <symbol id="icon-arrow" viewBox="0 0 32 32">
      <path d="M1.062 17.414a2 2 0 0 1 0-2.828L13.79 1.858a2 2 0 1 1 2.828 2.828L5.304 16l11.314 11.314a2 2 0 1 1-2.828 2.828L1.062 17.414zM36 18H2.476v-4H36v4z"/>
    </symbol>
    <symbol id="icon-facebook" viewBox="0 0 32 32">
      <path d="M0 16C0 7.163 7.163 0 16 0s16 7.163 16 16-7.163 16-16 16S0 24.837 0 16zm17.668 9.408v-8.705h2.403l.319-3h-2.721l.004-1.501c0-.782.074-1.202 1.198-1.202h1.502V8H17.97c-2.887 0-3.903 1.455-3.903 3.902v1.801h-1.799v3h1.799v8.705h3.602z"/>
    </symbol>
    <symbol id="icon-instagram" viewBox="0 0 32 32">
      <path d="M0 16C0 7.163 7.163 0 16 0s16 7.163 16 16-7.163 16-16 16S0 24.837 0 16zm16.001-8.533c-2.317 0-2.608.01-3.519.052-.909.042-1.528.185-2.071.396-.561.218-1.037.51-1.512.984s-.766.95-.985 1.511c-.212.543-.356 1.163-.396 2.071-.041.91-.051 1.201-.051 3.519s.01 2.607.052 3.518c.042.909.186 1.529.396 2.071.218.561.51 1.037.984 1.512s.95.767 1.511.985c.543.211 1.163.355 2.072.396.91.041 1.201.052 3.518.052s2.608-.01 3.518-.052c.908-.042 1.529-.185 2.072-.396.561-.218 1.036-.51 1.511-.985s.766-.95.985-1.512c.21-.543.354-1.163.396-2.071.041-.91.052-1.2.052-3.518s-.011-2.608-.052-3.519c-.043-.909-.187-1.529-.396-2.071-.219-.561-.51-1.037-.985-1.512s-.949-.766-1.511-.984c-.544-.211-1.164-.355-2.073-.396-.91-.041-1.2-.052-3.518-.052h.003z"/>
      <path d="M15.235 9.005H16c2.278 0 2.549.008 3.448.049.832.038 1.284.177 1.584.294.398.155.682.34.981.638s.484.583.639.981c.117.3.256.752.294 1.584.041.899.05 1.17.05 3.447s-.009 2.548-.05 3.447c-.038.832-.177 1.284-.294 1.584-.155.398-.34.682-.639.98s-.582.483-.981.638c-.3.117-.752.256-1.584.294-.899.041-1.17.05-3.448.05s-2.549-.009-3.448-.05c-.832-.038-1.284-.177-1.585-.294-.398-.155-.683-.34-.981-.638s-.484-.582-.639-.981c-.117-.3-.256-.752-.294-1.584-.041-.9-.049-1.17-.049-3.449s.008-2.548.049-3.447c.038-.832.177-1.284.294-1.584.155-.398.34-.683.639-.981s.583-.484.981-.639c.301-.117.752-.256 1.585-.294.787-.036 1.092-.046 2.683-.048v.002zm5.321 1.417a1.024 1.024 0 1 0 0 2.048 1.024 1.024 0 0 0 0-2.048zm-4.555 1.196a4.382 4.382 0 1 0 0 8.764 4.382 4.382 0 0 0 0-8.764z"/>
      <path d="M16.001 13.155a2.845 2.845 0 1 1 0 5.69 2.845 2.845 0 0 1 0-5.69z"/>
    </symbol>
    <symbol id="burger-menu" viewBox="0 0 46 32">
      <path d="M45.714 29.726c0 1.257-1.019 2.274-2.274 2.274h-18.309c-1.256 0-2.274-1.018-2.274-2.274s1.018-2.274 2.274-2.274h18.309c1.257 0 2.274 1.017 2.274 2.274zM45.714 16c0 1.257-1.019 2.274-2.274 2.274h-41.166c-1.256 0-2.274-1.018-2.274-2.274s1.018-2.274 2.274-2.274h41.166c1.257 0 2.274 1.019 2.274 2.274zM43.44 4.549c1.256 0 2.274-1.018 2.274-2.274s-1.018-2.274-2.274-2.274v0h-27.451c-1.256 0-2.274 1.018-2.274 2.274s1.018 2.274 2.274 2.274v0h27.451z"></path>
    </symbol>
    <symbol id="icon-close" viewBox="0 0 32 32">
<path stroke-linejoin="miter" stroke-linecap="round" stroke-miterlimit="4" stroke-width="2" d="M8 8l8 8 8-8M8 24l8-8 8 8"></path>
</symbol>
  </defs>
</svg>
